<?xml version="1.0" encoding="UTF-8" standalone="no"?>
<svg
   xmlns:dc="http://purl.org/dc/elements/1.1/"
   xmlns:cc="http://creativecommons.org/ns#"
   xmlns:rdf="http://www.w3.org/1999/02/22-rdf-syntax-ns#"
   xmlns:svg="http://www.w3.org/2000/svg"
   xmlns="http://www.w3.org/2000/svg"
   xmlns:sodipodi="http://sodipodi.sourceforge.net/DTD/sodipodi-0.dtd"
   xmlns:inkscape="http://www.inkscape.org/namespaces/inkscape"
   height="300"
   width="300"
   xml:space="preserve"
   viewBox="0 0 33 33"
   y="0px"
   x="0px"
   id="Ebene_1"
   version="1.1"
   sodipodi:docname="bundesliga.svg"
   inkscape:version="0.92.4 (f8dce91, 2019-08-02)"><sodipodi:namedview
     pagecolor="#ffffff"
     bordercolor="#666666"
     borderopacity="1"
     objecttolerance="10"
     gridtolerance="10"
     guidetolerance="10"
     inkscape:pageopacity="0"
     inkscape:pageshadow="2"
     inkscape:window-width="1280"
     inkscape:window-height="724"
     id="namedview37"
     showgrid="false"
     showguides="true"
     inkscape:guide-bbox="true"
     inkscape:zoom="1.1761543"
     inkscape:cx="219.87525"
     inkscape:cy="151.53207"
     inkscape:window-x="0"
     inkscape:window-y="0"
     inkscape:window-maximized="1"
     inkscape:current-layer="g7"><sodipodi:guide
       position="19.733806,43.395667"
       orientation="0,1"
       id="guide39"
       inkscape:locked="false" /></sodipodi:namedview><metadata
     id="metadata19"><rdf:RDF><cc:Work
         rdf:about=""><dc:format>image/svg+xml</dc:format><dc:type
           rdf:resource="http://purl.org/dc/dcmitype/StillImage" /><dc:title></dc:title></cc:Work></rdf:RDF></metadata><defs
     id="defs17" /><style
     id="style3"
     type="text/css">
	.st0{fill:#FFFFFF;}
	.st1{fill:#D20515;}
</style><g
     transform="translate(-43.5,-12)"
     id="g7"><rect
       style="fill:#d20515;stroke-width:1.36883545"
       id="rect11"
       height="33"
       width="33"
       class="st1"
       y="12.003516"
       x="43.499054" /><path
       style="fill:#ffffff"
       id="path13"
       d="m 69.211477,28.782675 c 0.01478,0.05388 -0.03275,0.09086 -0.129952,0.161644 l -0.05917,0.03275 0.02008,0.03909 c 0.01373,0.02536 -0.0095,0.06339 -0.05071,0.08346 l -0.08875,0.04437 c -0.04015,0.02113 -0.08453,0.01691 -0.0972,-0.0085 l -0.01902,-0.03592 -0.111984,0.05494 0.01796,0.03803 c 0.01267,0.02536 -0.01162,0.06339 -0.05388,0.08241 l -0.08981,0.04226 c -0.04121,0.01902 -0.08452,0.01374 -0.0972,-0.01268 l -0.01585,-0.03381 c -0.345475,0.162701 -0.732155,0.334909 -1.130455,0.519796 l 0.02219,0.05071 c 0.01373,0.02536 -0.01162,0.06233 -0.05177,0.08135 l -0.09086,0.04226 c -0.04121,0.01902 -0.08558,0.01268 -0.09615,-0.01268 l -0.0243,-0.05071 -0.127838,0.06233 0.0243,0.05177 c 0.01163,0.02641 -0.01162,0.06233 -0.05388,0.08241 l -0.0898,0.0412 c -0.04226,0.01902 -0.08452,0.01374 -0.09719,-0.01162 l -0.02325,-0.04966 c -0.180664,0.07184 -0.378227,0.10565 -0.521911,-0.165871 -0.06128,-0.124666 -0.06445,-0.410978 -0.111985,-0.563114 -0.01973,-0.04925 -0.06384,-0.08453 -0.116218,-0.09297 -1.755902,-0.337024 -2.350708,0.03803 -3.475884,-0.239826 -0.353927,-0.08663 -0.546207,-0.412035 -0.982544,-0.417316 -0.950847,-0.02853 -1.230819,-0.01479 -2.261963,-0.05388 -0.04437,0.148966 -0.04966,0.181717 -0.04966,0.181717 l -3.62379,-0.01691 0.553604,0.271523 0.177494,1.598482 c 0,0 -0.146855,0.04226 -0.189114,0.04754 0.03487,0.31695 0.06867,0.750115 0.08663,1.138905 0.01585,0.348644 0.03381,0.712082 0.03064,0.943453 0.0011,0.15056 -0.03522,0.299034 -0.105652,0.432108 -0.06902,0.116066 -0.161499,0.216459 -0.271519,0.294761 -0.03275,0.0243 -0.173263,0.119385 -0.334911,0.2113 -0.161644,0.09192 -0.356037,0.197565 -0.454293,0.244051 0.0148,0.04254 0.03208,0.08416 0.05177,0.124666 -2.198574,1.064959 -4.93068,1.428393 -5.814972,3.120902 -0.105648,0.19651 -0.461689,0.09403 -0.472252,-0.117272 0,-0.09719 0,-0.254616 0,-0.342304 h -0.0317 c -0.02853,0 -0.05071,-0.03909 -0.0486,-0.08557 v -0.09931 c 0,-0.04543 0.02747,-0.08135 0.05494,-0.0803 h 0.03803 c 0.01121,-0.09779 0.02993,-0.194564 0.056,-0.289478 l -0.03381,-0.01162 c -0.02641,-0.0095 -0.03486,-0.05283 -0.02007,-0.09614 l 0.03275,-0.09297 c 0.01585,-0.04332 0.0486,-0.06973 0.07712,-0.06128 l 0.03275,0.01162 c 0.157418,-0.366604 0.460633,-0.528248 0.602204,-0.875835 l -0.02219,-0.0085 c -0.02853,-0.01057 -0.03698,-0.05282 -0.02113,-0.09614 l 0.03275,-0.09403 c 0.01585,-0.04332 0.04966,-0.06973 0.07712,-0.06022 l 0.0243,0.0085 c 0.02113,-0.05071 0.04543,-0.105648 0.0729,-0.161644 l -0.02958,-0.02007 c -0.02536,-0.01585 -0.02536,-0.05916 0,-0.09825 l 0.05388,-0.08346 c 0.02324,-0.03803 0.06234,-0.05705 0.08663,-0.0412 l 0.01268,0.0074 h 0.01268 c 0.0074,0 0.01057,0 0.01796,-0.0085 0.01369,-0.01517 0.02815,-0.02963 0.04332,-0.04332 0.13818,-0.102066 0.326069,-0.104618 0.466973,-0.0063 0.138401,0.08346 0.679328,0.391964 1.20018,-0.07607 0.858932,-0.771244 1.863662,-1.818234 2.61906,-1.854157 -0.20496,-0.441614 -0.561001,-1.367109 -0.601147,-1.708357 l -0.245109,-0.05177 c -0.132061,-0.284199 -0.453236,-1.597425 -0.544094,-2.584196 0,0 -0.105652,-1.063894 0,-1.437895 -0.05811,-0.0063 -0.164814,0.08135 -0.194397,0.08241 -0.138401,-0.339136 0.310611,-3.205415 0.755398,-4.04005 l 0.681438,-0.271521 c -0.07078,-0.0085 -0.56311,-0.03064 -1.858379,-0.136288 -0.727929,0.643406 -1.563618,1.334357 -1.987275,1.709414 -0.07184,0.05283 -0.192283,0.462748 -0.192283,0.462748 0,0 -0.2113,0.188055 -0.41309,0.326456 -0.262013,0.183832 -0.903305,0.325403 -1.042763,0.10565 -0.0317,-0.05388 -0.02641,-0.07712 0,-0.10565 0.09931,-0.105648 0.474365,-0.283141 0.601147,-0.520853 -0.20496,0.10565 -0.433163,0.2113 -0.611714,0.19334 -0.07818,0 -0.118328,-0.195454 -0.01796,-0.230318 0.272575,-0.115158 0.488102,-0.164812 0.648689,-0.390904 0.160587,-0.226091 0.342308,-0.362379 0.589527,-0.367662 0,0 1.204407,-1.573126 1.914376,-2.324297 0.19651,-0.20496 0.561,-0.137344 0.561,-0.137344 l 0.06128,-0.238768 c 0,0 2.429947,-0.290539 3.566742,0.08452 -0.02641,-0.68778 0.282085,-1.601652 1.358658,-1.601652 0.553604,0 1.368164,0.489161 1.479095,1.082913 0.03381,0.182773 -0.07184,0.304271 -0.127838,0.535644 -0.09614,0.349701 0.03804,0.739548 0,0.861046 -0.03169,0.100367 -0.144737,0.09192 -0.242992,0.228205 -0.08602,0.134369 -0.160591,0.275734 -0.222924,0.4226 l -0.14685,0.329628 -0.758568,-0.05494 c -0.276802,0.599036 -0.8452,1.819292 -1.045933,3.028982 v 0 c 0.595863,0.05071 3.296276,0.441617 3.296276,0.441617 l 0.0655,0.219753 c 0,0 1.137848,0.136288 2.068623,0.580017 0.2113,0.05071 0.731098,-0.02747 1.074459,0.12995 0.02324,-0.01374 0.0803,-0.07184 0.105652,-0.08769 1.213917,0.374001 2.218643,1.010014 3.388191,1.293156 0,0 0.547264,0.133118 0.731095,0.169041 0.310173,0.06024 0.623893,0.100473 0.939224,0.120439 0.375061,0.02958 0.583191,0.0243 0.856827,0.04015 0.194389,0.01162 0.431045,-0.02113 0.508171,0.262012 m 1.737938,-3.691408 c -0.826798,-0.0017 -1.498467,0.667091 -1.500214,1.493891 -0.0017,0.826801 0.667084,1.498472 1.493889,1.500221 0.826798,0.0017 1.498474,-0.667091 1.500221,-1.493891 0,-0.0011 0,-0.0021 0,-0.0032 -0.0012,-0.826389 -0.671722,-1.495529 -1.498115,-1.494945 l 0.0042,-0.0021 z"
       class="st0"
       inkscape:connector-curvature="0" /></g></svg>