<?xml version="1.0" encoding="UTF-8" standalone="no"?>
<svg
   xmlns:dc="http://purl.org/dc/elements/1.1/"
   xmlns:cc="http://creativecommons.org/ns#"
   xmlns:rdf="http://www.w3.org/1999/02/22-rdf-syntax-ns#"
   xmlns:svg="http://www.w3.org/2000/svg"
   xmlns="http://www.w3.org/2000/svg"
   xmlns:sodipodi="http://sodipodi.sourceforge.net/DTD/sodipodi-0.dtd"
   xmlns:inkscape="http://www.inkscape.org/namespaces/inkscape"
   version="1.1"
   id="svg2"
   inkscape:version="0.92.4 (f8dce91, 2019-08-02)"
   sodipodi:docname="epl_logo.svg"
   width="300"
   height="300"
   viewBox="0 0 299.99999 300.00001"
   overflow="visible"
   enable-background="new 0 0 204.695 86.213"
   xml:space="preserve"
   style="overflow:visible"><metadata
     id="metadata10"><rdf:RDF><cc:Work
         rdf:about=""><dc:format>image/svg+xml</dc:format><dc:type
           rdf:resource="http://purl.org/dc/dcmitype/StillImage" /><dc:title></dc:title></cc:Work></rdf:RDF></metadata><defs
     id="defs8" /><sodipodi:namedview
     pagecolor="#ffffff"
     bordercolor="#666666"
     borderopacity="1"
     objecttolerance="10"
     gridtolerance="10"
     guidetolerance="10"
     inkscape:pageopacity="0"
     inkscape:pageshadow="2"
     inkscape:window-width="1280"
     inkscape:window-height="724"
     id="namedview6"
     showgrid="false"
     inkscape:zoom="1.4069713"
     inkscape:cx="159.20722"
     inkscape:cy="128.39609"
     inkscape:window-x="0"
     inkscape:window-y="0"
     inkscape:window-maximized="1"
     inkscape:current-layer="svg2"
     fit-margin-top="0"
     fit-margin-left="0"
     fit-margin-right="0"
     fit-margin-bottom="0" /><path
     id="path56"
     inkscape:connector-curvature="0"
     d="m 241.68081,137.57003 c -6.54546,5.36415 -12.09463,8.3538 -12.09463,8.3538 l 0.0757,17.00285 c 4.67891,5.09344 9.29479,9.31337 12.7504,17.00281 6.55807,-11.51564 5.29691,-28.44472 -0.73146,-42.35946 m -5.32216,55.65909 c 0,0 -1.3368,-7.01275 -7.02469,-13.55797 l -12.97742,0.30773 c 0,0 -17.4924,14.6653 -28.16189,15.00974 0,0 5.87704,10.66678 8.85341,16.24009 5.86444,-1.25495 16.19338,-5.77017 20.35524,-10.49455 0,0 2.74937,8.64909 2.23228,18.8606 5.83921,-3.29719 13.88545,-12.25384 16.72307,-26.36547 m -16.72307,-30.70846 -0.0243,-16.94134 c 0,0 -7.75619,-2.42368 -16.02944,-8.68597 -16.62222,2.44834 -36.75048,18.76217 -36.75048,18.76217 0,0 6.79772,12.58609 14.23862,26.16868 13.07831,1.78392 32.34896,-14.33312 38.56652,-19.30354 m 44.33006,70.5458 -10.69472,-11.55256 c -3.05202,31.2252 -18.72834,57.73832 -47.5208,76.22983 l -4.40147,-16.84291 c -24.44145,17.2243 -66.3879,28.39551 -102.419493,8.51374 4.477123,-22.26856 8.449823,-44.83239 -0.07572,-71.84996 -19.951679,30.14253 -37.608048,41.95347 -37.608048,41.95347 -13.481868,-22.084 -12.271172,-66.38735 -8.248034,-79.42864 l -22.436183,6.779 c 0,-14.88671 10.98476,-46.46869 26.900732,-64.20973 L 43.45123,120.46893 H 43.43734 C 52.959176,101.4853 67.17254,85.122189 84.564041,72.831428 l 0.02431,-0.01389 C 79.367127,80.863741 79.291446,100.72088 94.589427,108.275 88.094432,97.165345 87.312506,83.435072 94.097584,76.323892 c 6.785076,-7.17269 18.198636,-4.712051 25.488206,0.848925 -2.1692,-6.200744 -8.52551,-14.000906 -18.04732,-14.529913 h -0.0139 c 17.98424,-9.030482 38.40259,-14.111633 60.00638,-14.111633 4.03574,0 8.05888,0.172272 11.99373,0.516711 v 0 c 6.28063,2.46064 15.49974,11.097397 19.80035,16.473841 0,0 0.30252,-6.336095 -3.30428,-13.988611 23.39469,5.560976 34.55603,14.849832 39.23494,19.328135 0.95851,9.867077 3.98532,15.784858 7.9832,25.159779 -7.57961,-8.279988 -26.62325,-21.641092 -35.71629,-24.839895 0,0 -0.74407,8.550656 -3.87177,12.65986 C 179.54044,71.09513 170.6492,67.883997 170.6492,67.883997 c -19.876,2.780488 -32.66427,10.260767 -39.61328,16.141661 l 6.05358,5.031901 c -11.98109,3.592527 -19.76249,13.631811 -19.76249,13.631811 0.0882,0.18477 10.70731,1.66093 10.70731,1.66093 0,0 -1.08461,12.16774 14.52867,19.79566 13.381,6.53292 32.6138,-1.57479 50.72419,5.51176 -11.90541,-13.41032 -20.14087,-19.40194 -20.14087,-19.40194 0,0 -4.72939,-0.95962 -8.05885,-0.93506 -4.16186,0.0243 -10.36681,0.82433 -17.16449,-1.75933 -3.25382,-1.24261 -7.04995,-3.43251 -10.02629,-5.25338 0,0 8.36154,-8.378423 20.58224,-10.223885 0,0 11.02262,3.026566 19.74993,9.325745 5.80135,-5.511765 11.85497,-5.339528 11.85497,-5.339528 0,0 -6.00318,5.462548 -4.18707,12.081608 8.71466,7.57871 18.17343,18.42999 18.17343,18.42999 9.63531,-5.1427 30.58332,-3.96159 34.88389,0.91044 -5.44823,-6.90199 -13.30532,-12.65986 -19.38415,-17.58107 -0.74407,-2.58366 -7.37782,-11.589486 -8.50026,-12.426116 0,0 6.30584,1.894677 11.94326,6.828216 1.61429,-2.25148 4.6411,-4.539849 8.76513,-5.548681 4.23751,3.469441 4.99422,8.796661 4.88071,9.682511 -1.90437,2.22686 -3.79613,3.13729 -3.79613,3.13729 l 10.21548,10.78977 1.02154,-7.73865 c 23.53341,32.78771 36.3595,70.73037 19.8634,118.42938 M 78.117288,25.562852 c 13.570193,6.065427 22.284852,13.717943 23.873922,14.886717 -0.71885,-3.420256 -3.392538,-19.881766 -4.931175,-30.105613 7.907515,5.351853 26.257525,17.777931 32.298535,21.81333 2.45928,-7.394143 10.98476,-31.54505599 10.98476,-31.54505599 0,0 15.41149,24.33547999 18.04731,28.28477599 3.216,-3.284938 21.62904,-23.2774314 26.39629,-28.33399155 0.79453,11.50338155 1.87911,27.95259755 2.15659,30.42549655 0.92065,-1.217989 7.97059,-10.863614 19.78771,-19.746415 -5.12033,9.842453 -7.56701,23.425044 -8.65159,34.337874 -11.62796,-3.161917 -23.89914,-4.859733 -36.53607,-4.859733 -24.27748,0 -47.0794,6.225369 -66.791457,17.16279 C 91.170387,47.339296 85.558181,34.224235 78.117288,25.562852"
     style="fill:#3d195b;stroke-width:3.47322226" /></svg>