<?xml version="1.0" encoding="UTF-8" standalone="no"?>
<svg
   xmlns:dc="http://purl.org/dc/elements/1.1/"
   xmlns:cc="http://creativecommons.org/ns#"
   xmlns:rdf="http://www.w3.org/1999/02/22-rdf-syntax-ns#"
   xmlns:svg="http://www.w3.org/2000/svg"
   xmlns="http://www.w3.org/2000/svg"
   xmlns:sodipodi="http://sodipodi.sourceforge.net/DTD/sodipodi-0.dtd"
   xmlns:inkscape="http://www.inkscape.org/namespaces/inkscape"
   width="300pt"
   height="300pt"
   version="1.1"
   viewBox="0 0 300 300"
   id="svg65"
   sodipodi:docname="LaLiga.svg"
   inkscape:version="0.92.4 (f8dce91, 2019-08-02)">
  <metadata
     id="metadata71">
    <rdf:RDF>
      <cc:Work
         rdf:about="">
        <dc:format>image/svg+xml</dc:format>
        <dc:type
           rdf:resource="http://purl.org/dc/dcmitype/StillImage" />
        <dc:title></dc:title>
      </cc:Work>
    </rdf:RDF>
  </metadata>
  <defs
     id="defs69" />
  <sodipodi:namedview
     pagecolor="#ffffff"
     bordercolor="#666666"
     borderopacity="1"
     objecttolerance="10"
     gridtolerance="10"
     guidetolerance="10"
     inkscape:pageopacity="0"
     inkscape:pageshadow="2"
     inkscape:window-width="1280"
     inkscape:window-height="724"
     id="namedview67"
     showgrid="false"
     inkscape:zoom="0.64083904"
     inkscape:cx="303.66065"
     inkscape:cy="279.32131"
     inkscape:window-x="0"
     inkscape:window-y="0"
     inkscape:window-maximized="1"
     inkscape:current-layer="svg65" />
  <g
     id="g84"
     transform="matrix(0.34967599,0,0,0.34967599,4.6813628,307.55521)">
    <path
       style="fill:#ffffff"
       inkscape:connector-curvature="0"
       id="path29"
       d="m 300.95,-516.33999 c 16.78,-24.91 42.45,-43.74 71.41,-51.83 -5.15,3.55 -9.46,8.08 -13.74,12.58 14.9,-1.93 30.38,-0.19 44.19,5.88 1.78,13.15 2.74,26.42 4.83,39.52 1.71,-13.16 3.01,-26.37 4.64,-39.54 13.48,-5.84 28.61,-7.9 43.15,-5.84 l 0.98,0.78 c 0.03,-0.23 0.09,-0.68 0.12,-0.9 -4.49,-4.3 -8.66,-8.98 -13.85,-12.47 28.92,8.11 54.59,26.88 71.35,51.78 -4.92,-3.78 -10.54,-6.43 -16.1,-9.09 6.4,13.47 9.64,28.63 8.09,43.54 -12.13,5.64 -24.46,10.88 -36.45,16.82 13.1,-2.35 26.1,-5.24 39.15,-7.8 10.21,11.22 16.59,25.51 19.49,40.31 2.87,-5.24 5.71,-10.53 7.5,-16.25 1.01,29.35 -8.59,58.9 -26.64,82.05 1.64,-5.56 2.51,-11.29 3.28,-17.01 -10.87,10.26 -24.32,17.94 -38.98,21.18 -9.24,-9.87 -18.12,-20.09 -27.58,-29.75 6.37,11.86 13.21,23.46 19.77,35.21 -7.6,13.1 -19.17,23.65 -32.44,30.84 5.69,1.03 11.42,1.96 17.22,2.13 -27.47,9.79 -58.29,9.76 -85.76,-0.03 5.84,-0.12 11.61,-1.07 17.35,-2.1 -13.27,-7.19 -24.84,-17.74 -32.44,-30.85 6.54,-11.74 13.42,-23.31 19.73,-35.17 -9.48,9.66 -18.3,19.96 -27.66,29.74 -14.58,-3.35 -28.04,-10.91 -38.84,-21.21 0.75,5.77 1.6,11.54 3.28,17.13 -18.06,-23.2 -27.71,-52.76 -26.71,-82.16 1.87,5.75 4.72,11.08 7.6,16.37 2.72,-14.89 9.27,-29.19 19.45,-40.46 13.06,2.55 26.06,5.44 39.16,7.8 -11.98,-5.97 -24.34,-11.18 -36.47,-16.84 -1.53,-14.88 1.68,-30.03 8.09,-43.48 -5.6,2.64 -11.23,5.34 -16.17,9.12 m 106.57,12.11 c -18.76,13.65 -37.55,27.27 -56.33,40.89 7.15,22.1 14.36,44.17 21.54,66.26 23.24,-0.05 46.48,0.08 69.72,-0.07 7.05,-22.11 14.41,-44.12 21.44,-66.24 -18.83,-13.56 -37.56,-27.26 -56.37,-40.84 z" />
    <path
       style="fill:#951b80"
       inkscape:connector-curvature="0"
       id="path31"
       d="m 372.22,-867.99999 h 2.76 c 1.54,1.34 2.99,2.9 3.14,5.06 10.15,54.62 20.38,109.23 30.5,163.86 0.89,2.75 -0.69,6.02 -3.69,6.39 -20.61,3.7 -40.69,10.56 -59.04,20.69 -30.58,16.73 -56.54,41.93 -73.79,72.25 -1.09,1.92 -2.54,4.13 -5.05,4.05 -3.34,-0.66 -6.07,-2.85 -8.99,-4.44 -46.17,-26.83 -92.35,-53.63 -138.54,-80.43 -1.95,-1.07 -3.91,-2.99 -3.34,-5.44 1.14,-3.47 3.43,-6.4 5.19,-9.55 35.92,-59.65 89.28,-108.49 151.62,-139.42 31.3,-15.64 64.85,-26.6 99.23,-33.02 z" />
    <path
       style="fill:#e40613"
       inkscape:connector-curvature="0"
       id="path33"
       d="m 465.17,-826.70999 c 50.91,-1.33 102.06,8.09 149.22,27.3 36.3,14.8 70.25,35.37 100.13,60.75 1.67,1.46 3.51,2.78 4.92,4.52 1.29,2.11 0.53,4.8 -1.16,6.44 -36.38,41.95 -72.76,83.9 -109.12,125.86 -1.13,1.21 -2.41,2.62 -4.21,2.57 -2.29,0.15 -3.87,-1.76 -5.5,-3.04 -41.23,-35.91 -98.5,-52.5 -152.54,-44.13 -2.05,0.2 -4.42,0.99 -6.2,-0.44 -1.48,-0.86 -1.9,-2.64 -2.12,-4.21 -7.79,-52.6 -15.56,-105.21 -23.35,-157.81 -0.4,-3.03 -1.07,-6.04 -1.2,-9.1 -0.08,-2.29 1.9,-4.19 4.1,-4.44 15.56,-2.47 31.28,-3.83 47.03,-4.27 z" />
    <path
       style="fill:#01509f"
       inkscape:connector-curvature="0"
       id="path35"
       d="m 54.4,-681.64999 c 1.88,-1.13 4.05,-0.5 5.82,0.51 49.21,26.43 98.49,52.75 147.69,79.21 3.13,1.43 3.1,5.49 1.22,7.95 -26.46,48.13 -30.35,107.94 -10.3,159.08 0.67,2.15 2.17,4.5 0.94,6.73 -1.17,2.29 -3.99,2.73 -6.13,3.71 -51.13,19.61 -102.21,39.34 -153.33,58.97 -2.15,0.98 -5.04,0.82 -6.39,-1.35 -1.69,-3.26 -2.73,-6.82 -4.07,-10.24 -27.22,-74.22 -29.36,-157.24 -6.38,-232.85 7.11,-23.66 16.67,-46.57 28.32,-68.35 0.71,-1.22 1.36,-2.6 2.61,-3.37 z" />
    <path
       style="fill:#f28800"
       inkscape:connector-curvature="0"
       id="path37"
       d="m 707.41,-672.45999 c 1.91,-1.17 4.27,-0.29 5.74,1.18 43.12,40.15 76.13,90.96 95.72,146.5 13.04,36.68 19.97,75.43 21.13,114.32 v 19.85 c -0.25,3.47 -0.19,6.99 -0.87,10.42 -0.87,2.53 -3.76,3.14 -6.12,2.9 -55.7,-2.76 -111.42,-5.34 -167.12,-8.15 -3.43,0.11 -5.26,-3.47 -4.63,-6.51 3.22,-54.64 -18.81,-110.13 -58.62,-147.68 -1.58,-1.6 -3.57,-3.07 -4.22,-5.32 -0.38,-2.11 1.1,-3.81 2.41,-5.25 36.86,-38.79 73.7,-77.61 110.54,-116.42 1.96,-1.99 3.71,-4.26 6.04,-5.84 z" />
    <g
       transform="translate(0,-867.99999)"
       style="fill:#1d1d1b"
       id="g57">
      <path
         inkscape:connector-curvature="0"
         id="path39"
         d="m 389.65,284.84 c 39.91,-5.35 81.81,7.73 111.48,34.97 26.13,23.46 42.8,57.13 45.42,92.17 2.96,35.25 -8.29,71.41 -30.72,98.76 -22.51,27.91 -56.12,46.54 -91.76,50.62 -39.05,4.86 -79.86,-7.86 -109.13,-34.18 -26.47,-23.28 -43.51,-56.95 -46.4,-92.1 -2.79,-31.06 5.32,-62.96 22.64,-88.9 21.94,-33.39 58.79,-56.48 98.47,-61.34 m -88.7,66.82 c 4.94,-3.78 10.57,-6.48 16.17,-9.12 -6.41,13.45 -9.62,28.6 -8.09,43.48 12.13,5.66 24.49,10.87 36.47,16.84 -13.1,-2.36 -26.1,-5.25 -39.16,-7.8 -10.18,11.27 -16.73,25.57 -19.45,40.46 -2.88,-5.29 -5.73,-10.62 -7.6,-16.37 -1,29.4 8.65,58.96 26.71,82.16 -1.68,-5.59 -2.53,-11.36 -3.28,-17.13 10.8,10.3 24.26,17.86 38.84,21.21 9.36,-9.78 18.18,-20.08 27.66,-29.74 -6.31,11.86 -13.19,23.43 -19.73,35.17 7.6,13.11 19.17,23.66 32.44,30.85 -5.74,1.03 -11.51,1.98 -17.35,2.1 27.47,9.79 58.29,9.82 85.76,0.03 -5.8,-0.17 -11.53,-1.1 -17.22,-2.13 13.27,-7.19 24.84,-17.74 32.44,-30.84 -6.56,-11.75 -13.4,-23.35 -19.77,-35.21 9.46,9.66 18.34,19.88 27.58,29.75 14.66,-3.24 28.11,-10.92 38.98,-21.18 -0.77,5.72 -1.64,11.45 -3.28,17.01 18.05,-23.15 27.65,-52.7 26.64,-82.05 -1.79,5.72 -4.63,11.01 -7.5,16.25 -2.9,-14.8 -9.28,-29.09 -19.49,-40.31 -13.05,2.56 -26.05,5.45 -39.15,7.8 11.99,-5.94 24.32,-11.18 36.45,-16.82 1.55,-14.91 -1.69,-30.07 -8.09,-43.54 5.56,2.66 11.18,5.31 16.1,9.09 -16.76,-24.9 -42.43,-43.67 -71.35,-51.78 5.19,3.49 9.36,8.17 13.85,12.47 -0.03,0.22 -0.09,0.67 -0.12,0.9 l -0.98,-0.78 c -14.54,-2.06 -29.67,0 -43.15,5.84 -1.63,13.17 -2.93,26.38 -4.64,39.54 -2.09,-13.1 -3.05,-26.37 -4.83,-39.52 -13.81,-6.07 -29.29,-7.81 -44.19,-5.88 4.28,-4.5 8.59,-9.03 13.74,-12.58 -28.96,8.09 -54.63,26.92 -71.41,51.83 z" />
      <path
         inkscape:connector-curvature="0"
         id="path41"
         d="m 407.52,363.77 c 18.81,13.58 37.54,27.28 56.37,40.84 -7.03,22.12 -14.39,44.13 -21.44,66.24 -23.24,0.15 -46.48,0.02 -69.72,0.07 -7.18,-22.09 -14.39,-44.16 -21.54,-66.26 18.78,-13.62 37.57,-27.24 56.33,-40.89 z" />
    </g>
    <path
       style="fill:#0090d7"
       inkscape:connector-curvature="0"
       id="path59"
       d="m 157.35,-386.68999 c 3.18,-1.86 6.69,0.45 7.53,3.72 21.57,51.16 66.79,91.57 120.01,107.37 3.21,0.48 5.72,3.61 4.36,6.83 -16.58,53.34 -33.25,106.66 -49.89,159.97 -0.57,3.31 -4.2,4.97 -7.18,3.57 -42.09,-12.83 -81.82,-33.33 -116.7,-60.16 -50.53,-38.67 -90.79,-90.66 -115.48,-149.3 v -2.3 c 1.01,-1.68 2.52,-2.97 4.37,-3.65 51.02,-21.95 101.96,-44.11 152.98,-66.05 z" />
    <path
       style="fill:#feed01"
       inkscape:connector-curvature="0"
       id="path61"
       d="m 601.31,-365.61999 c 1.24,-0.23 2.5,-0.27 3.78,-0.13 55.34,4.38 110.69,8.63 166.03,12.97 3.07,-0.12 5.57,2.7 4.94,5.76 -4.98,72.36 -32.33,142.87 -76.92,200.02 -21.33,27.46 -46.57,51.870001 -74.72,72.270001 -2.21,1.96 -5.77,1.23 -7.26,-1.22 -31.79,-43.270001 -63.56,-86.560001 -95.33,-129.850001 -1.78,-2.69 -4.39,-5.02 -5.17,-8.22 -0.46,-2.93 2.31,-4.56 4.3,-6.04 43.95,-31.97 72.77,-83.65 76.91,-137.83 0.17,-2.82 0.09,-6.75 3.44,-7.73 z" />
    <path
       style="fill:#00963f"
       inkscape:connector-curvature="0"
       id="path63"
       d="m 463.45,-245.43999 c 2.5,-1.22 5.13,0.59 6.31,2.78 31.05,46.3 62.22,92.52 93.25,138.83 2.65,3.29 -0.23,7.170001 -3.46,8.550001 -70.54,47.52 -157.83,69.23 -242.41,60.69 -21.55,-2.14 -42.92,-6.12 -63.76,-11.99 -2.84,-0.54 -4.44,-3.76 -3.39,-6.39 14.82,-53.890001 29.75,-107.750001 44.61,-161.620001 0.53,-3.4 4.35,-4.99 7.33,-3.55 41.35,11.83 86.64,8.85 126.2,-7.96 12.46,-5.11 24.07,-12.01 35.32,-19.34 z" />
  </g>
</svg>
